# xmcd CD database file
#
# Track frame offsets:
#	150
#	21310
#	39131
#	54269
#	74378
#	89381
#	102835
#	117318
#	135659
#	150647
#	165582
#	181623
#	196660
#
# Disc length: 2839 seconds
#
# Revision: 1
# Processed by: cddbd v1.5.1PL0 Copyright (c) Steve Scherf et al.
# Submitted via: CDex 1.51
#
DISCID=9a0b150d
DTITLE=Emily Weidauer - Thrive
DYEAR=2004
DGENRE=Country
TTITLE0=Thrive
TTITLE1=Your Love Is A Gift
TTITLE2=Did I Just Hear You Say That
TTITLE3=Love's What It's All About
TTITLE4=God's Teardrops
TTITLE5=Can I Stay With You Tonight
TTITLE6=You The Man
TTITLE7=Time Off
TTITLE8=Seventh Heaven
TTITLE9=Kiss And Tell
TTITLE10=Come Inside
TTITLE11=Get Out The Kitchen
TTITLE12=Bend, My Heart (Don't Break)
EXTD=YEAR: 2004
EXTT0=
EXTT1=
EXTT2=
EXTT3=
EXTT4=
EXTT5=
EXTT6=
EXTT7=
EXTT8=
EXTT9=
EXTT10=
EXTT11=
EXTT12=
PLAYORDER=
